# xmcd
#
# Track frame offsets:
# 150
# 23792
# 44507
# 68506
# 91168
# 118192
# 151667
# 182744
# 208968
# 236097
# 263687
# 295679
#
# Disc length: 4242 seconds
#
#
# Revision: 5
# Processed by: cddbd v1.4PL0 Copyright (c) Steve Scherf et al.
# Submitted via: FreeRIP 2.30 
#
DISCID=a110900c
DTITLE=Diana Krall - Live in Paris
DYEAR=2002
DGENRE=Jazz - Live Vocals
TTITLE0=I Love Being Here With You
TTITLE1=Let's Fall in Love
TTITLE2='Deed I Do
TTITLE3=The Look of Love
TTITLE4=East of the Sun
TTITLE5=I've Got You Under My Skin
TTITLE6=Devil May Care
TTITLE7=Maybe You'll Be There
TTITLE8='S Wonderful
TTITLE9=Fly Me to the Moon
TTITLE10=A Case of You
TTITLE11=Just the Way You Are
EXTD=YEAR: 2002
EXTT0=
EXTT1=
EXTT2=
EXTT3=
EXTT4=
EXTT5=
EXTT6=
EXTT7=
EXTT8=
EXTT9=
EXTT10=
EXTT11=
PLAYORDER=
